<svg width="18" height="18" viewBox="0 0 18 18" xmlns="http://www.w3.org/2000/svg">
  <path d="M10.358.19c.513-.09.805.567.394.887l-.598.464.217 1.092.564 3.26 5.811 4.773a2.5 2.5 0 01.771 2.764l-.068.173-.41.934a2.5 2.5 0 01-1.855 1.457L4.489 17.88a2.5 2.5 0 01-2.242-.735l-.705-.738a2.5 2.5 0 01-.344-3l3.829-6.473-.562-3.247-.213-1.038-.855-.276c-.465-.15-.45-.79-.024-.944l.091-.024zM9.112 1.424L5.16 2.12l.014.044.273 1.337.596 3.444a.5.5 0 01-.062.34L2.06 13.917a1.5 1.5 0 00.207 1.8l.704.737a1.5 1.5 0 001.345.441l10.695-1.886a1.5 1.5 0 001.113-.874l.41-.934a1.5 1.5 0 00-.421-1.763l-5.955-4.89a.5.5 0 01-.175-.3l-.594-3.433-.276-1.391zm1.916 7.923l3.263 2.663a.867.867 0 01.29.895.884.884 0 01-.694.642l-9.005 1.665a1 1 0 01-.74-.154l-.17-.115a.646.646 0 01-.193-.868l2.844-4.728h4.405z" fill="#46A661" fill-rule="nonzero"/>
</svg>
